# xmcd CD database file
#
# Track frame offsets:
#	150
#	6603
#	19430
#	33619
#	48086
#	61400
#	76789
#	85965
#	102450
#	127404
#	141155
#	153244
#	173473
#	187292
#	206525
#
# Disc length: 3171 seconds
#
# Revision: 0
# Processed by: cddbd v1.5.2PL0 Copyright (c) Steve Scherf et al.
# Submitted via: cdripper 1.0.10
#
DISCID=d30c610f
DTITLE=Rough Trade - Summertime Blues
DYEAR=2007
DGENRE=Blues
TTITLE0=Oneida - The Set Up
TTITLE1=The Detroit Cobras - You'll Never Change
TTITLE2=Basia Bulat - Snakes and Ladders
TTITLE3=1990s - Risqué Pictures
TTITLE4=Lavender Diamond - Here Comes One
TTITLE5=Brakes - Hold Me In The River
TTITLE6=Jeffrey Lewis - End Result
TTITLE7=Sunset Rubdown - They Took A Vote And Said No
TTITLE8=The Decemberists - The Perfect Crime No.2
TTITLE9=Miracle Fortress - Have You Seen You In Your Dreams
TTITLE10=Scritti Politti - Forgiven
TTITLE11=Taken By Trees - Too Young
TTITLE12=Antony and the Johnsons - Paddy's Gone
TTITLE13=Destroyer - Your Blood
TTITLE14=Arthur Russell - That's Us/Wild Combination
EXTD=YEAR: 2007
EXTT0=
EXTT1=
EXTT2=
EXTT3=
EXTT4=
EXTT5=
EXTT6=
EXTT7=
EXTT8=
EXTT9=
EXTT10=
EXTT11=
EXTT12=
EXTT13=
EXTT14=
PLAYORDER=
